<svg xmlns="http://www.w3.org/2000/svg" viewBox="0 0 512 512" width="512" height="512" shape-rendering="crispEdges"><rect x="389" y="209" width="19" height="1" fill="#82F192"/><rect x="389" y="210" width="19" height="1" fill="#82F192"/><rect x="389" y="211" width="19" height="1" fill="#82F192"/><rect x="389" y="212" width="19" height="1" fill="#82F192"/><rect x="389" y="213" width="19" height="1" fill="#82F192"/><rect x="389" y="214" width="19" height="1" fill="#82F192"/><rect x="389" y="215" width="19" height="1" fill="#82F192"/><rect x="389" y="216" width="19" height="1" fill="#82F192"/><rect x="389" y="217" width="19" height="1" fill="#82F192"/><rect x="379" y="218" width="10" height="1" fill="#82F192"/><rect x="389" y="218" width="19" height="1" fill="#3C9156"/><rect x="408" y="218" width="9" height="1" fill="#82F192"/><rect x="379" y="219" width="10" height="1" fill="#82F192"/><rect x="389" y="219" width="19" height="1" fill="#3C9156"/><rect x="408" y="219" width="9" height="1" fill="#82F192"/><rect x="379" y="220" width="10" height="1" fill="#82F192"/><rect x="389" y="220" width="19" height="1" fill="#3C9156"/><rect x="408" y="220" width="9" height="1" fill="#82F192"/><rect x="379" y="221" width="10" height="1" fill="#82F192"/><rect x="389" y="221" width="19" height="1" fill="#3C9156"/><rect x="408" y="221" width="9" height="1" fill="#82F192"/><rect x="379" y="222" width="10" height="1" fill="#82F192"/><rect x="389" y="222" width="19" height="1" fill="#3C9156"/><rect x="408" y="222" width="9" height="1" fill="#82F192"/><rect x="379" y="223" width="10" height="1" fill="#82F192"/><rect x="389" y="223" width="19" height="1" fill="#3C9156"/><rect x="408" y="223" width="9" height="1" fill="#82F192"/><rect x="379" y="224" width="10" height="1" fill="#82F192"/><rect x="389" y="224" width="19" height="1" fill="#3C9156"/><rect x="408" y="224" width="9" height="1" fill="#82F192"/><rect x="379" y="225" width="10" height="1" fill="#82F192"/><rect x="389" y="225" width="19" height="1" fill="#3C9156"/><rect x="408" y="225" width="9" height="1" fill="#82F192"/><rect x="379" y="226" width="10" height="1" fill="#82F192"/><rect x="389" y="226" width="19" height="1" fill="#3C9156"/><rect x="408" y="226" width="9" height="1" fill="#82F192"/><rect x="379" y="227" width="10" height="1" fill="#82F192"/><rect x="389" y="227" width="19" height="1" fill="#3C9156"/><rect x="408" y="227" width="9" height="1" fill="#82F192"/><rect x="389" y="228" width="19" height="1" fill="#3C9156"/><rect x="389" y="229" width="19" height="1" fill="#3C9156"/><rect x="389" y="230" width="19" height="1" fill="#3C9156"/><rect x="389" y="231" width="19" height="1" fill="#3C9156"/><rect x="389" y="232" width="19" height="1" fill="#3C9156"/><rect x="389" y="233" width="19" height="1" fill="#3C9156"/><rect x="389" y="234" width="19" height="1" fill="#3C9156"/><rect x="389" y="235" width="19" height="1" fill="#3C9156"/><rect x="389" y="236" width="19" height="1" fill="#3C9156"/><rect x="332" y="247" width="19" height="1" fill="#82F192"/><rect x="408" y="247" width="19" height="1" fill="#3C9156"/><rect x="427" y="247" width="9" height="1" fill="#5FC174"/><rect x="436" y="247" width="19" height="1" fill="#82F192"/><rect x="332" y="248" width="19" height="1" fill="#82F192"/><rect x="408" y="248" width="19" height="1" fill="#3C9156"/><rect x="427" y="248" width="9" height="1" fill="#5FC174"/><rect x="436" y="248" width="19" height="1" fill="#82F192"/><rect x="332" y="249" width="19" height="1" fill="#82F192"/><rect x="408" y="249" width="19" height="1" fill="#3C9156"/><rect x="427" y="249" width="9" height="1" fill="#5FC174"/><rect x="436" y="249" width="19" height="1" fill="#82F192"/><rect x="332" y="250" width="19" height="1" fill="#82F192"/><rect x="408" y="250" width="19" height="1" fill="#3C9156"/><rect x="427" y="250" width="9" height="1" fill="#5FC174"/><rect x="436" y="250" width="19" height="1" fill="#82F192"/><rect x="332" y="251" width="19" height="1" fill="#82F192"/><rect x="408" y="251" width="19" height="1" fill="#3C9156"/><rect x="427" y="251" width="9" height="1" fill="#5FC174"/><rect x="436" y="251" width="19" height="1" fill="#82F192"/><rect x="332" y="252" width="19" height="1" fill="#82F192"/><rect x="408" y="252" width="19" height="1" fill="#3C9156"/><rect x="427" y="252" width="9" height="1" fill="#5FC174"/><rect x="436" y="252" width="19" height="1" fill="#82F192"/><rect x="332" y="253" width="19" height="1" fill="#82F192"/><rect x="408" y="253" width="19" height="1" fill="#3C9156"/><rect x="427" y="253" width="9" height="1" fill="#5FC174"/><rect x="436" y="253" width="19" height="1" fill="#82F192"/><rect x="332" y="254" width="19" height="1" fill="#82F192"/><rect x="408" y="254" width="19" height="1" fill="#3C9156"/><rect x="427" y="254" width="9" height="1" fill="#5FC174"/><rect x="436" y="254" width="19" height="1" fill="#82F192"/><rect x="332" y="255" width="19" height="1" fill="#82F192"/><rect x="408" y="255" width="19" height="1" fill="#3C9156"/><rect x="427" y="255" width="9" height="1" fill="#5FC174"/><rect x="436" y="255" width="19" height="1" fill="#82F192"/><rect x="322" y="256" width="10" height="1" fill="#3C9156"/><rect x="332" y="256" width="9" height="1" fill="#5FC174"/><rect x="370" y="256" width="9" height="1" fill="#5FC174"/><rect x="379" y="256" width="10" height="1" fill="#82F192"/><rect x="398" y="256" width="29" height="1" fill="#3C9156"/><rect x="427" y="256" width="9" height="1" fill="#5FC174"/><rect x="436" y="256" width="29" height="1" fill="#82F192"/><rect x="322" y="257" width="10" height="1" fill="#3C9156"/><rect x="332" y="257" width="9" height="1" fill="#5FC174"/><rect x="370" y="257" width="9" height="1" fill="#5FC174"/><rect x="379" y="257" width="10" height="1" fill="#82F192"/><rect x="398" y="257" width="29" height="1" fill="#3C9156"/><rect x="427" y="257" width="9" height="1" fill="#5FC174"/><rect x="436" y="257" width="29" height="1" fill="#82F192"/><rect x="322" y="258" width="10" height="1" fill="#3C9156"/><rect x="332" y="258" width="9" height="1" fill="#5FC174"/><rect x="370" y="258" width="9" height="1" fill="#5FC174"/><rect x="379" y="258" width="10" height="1" fill="#82F192"/><rect x="398" y="258" width="29" height="1" fill="#3C9156"/><rect x="427" y="258" width="9" height="1" fill="#5FC174"/><rect x="436" y="258" width="29" height="1" fill="#82F192"/><rect x="322" y="259" width="10" height="1" fill="#3C9156"/><rect x="332" y="259" width="9" height="1" fill="#5FC174"/><rect x="370" y="259" width="9" height="1" fill="#5FC174"/><rect x="379" y="259" width="10" height="1" fill="#82F192"/><rect x="398" y="259" width="29" height="1" fill="#3C9156"/><rect x="427" y="259" width="9" height="1" fill="#5FC174"/><rect x="436" y="259" width="29" height="1" fill="#82F192"/><rect x="322" y="260" width="10" height="1" fill="#3C9156"/><rect x="332" y="260" width="9" height="1" fill="#5FC174"/><rect x="370" y="260" width="9" height="1" fill="#5FC174"/><rect x="379" y="260" width="10" height="1" fill="#82F192"/><rect x="398" y="260" width="29" height="1" fill="#3C9156"/><rect x="427" y="260" width="9" height="1" fill="#5FC174"/><rect x="436" y="260" width="29" height="1" fill="#82F192"/><rect x="322" y="261" width="10" height="1" fill="#3C9156"/><rect x="332" y="261" width="9" height="1" fill="#5FC174"/><rect x="370" y="261" width="9" height="1" fill="#5FC174"/><rect x="379" y="261" width="10" height="1" fill="#82F192"/><rect x="398" y="261" width="29" height="1" fill="#3C9156"/><rect x="427" y="261" width="9" height="1" fill="#5FC174"/><rect x="436" y="261" width="29" height="1" fill="#82F192"/><rect x="322" y="262" width="10" height="1" fill="#3C9156"/><rect x="332" y="262" width="9" height="1" fill="#5FC174"/><rect x="370" y="262" width="9" height="1" fill="#5FC174"/><rect x="379" y="262" width="10" height="1" fill="#82F192"/><rect x="398" y="262" width="29" height="1" fill="#3C9156"/><rect x="427" y="262" width="9" height="1" fill="#5FC174"/><rect x="436" y="262" width="29" height="1" fill="#82F192"/><rect x="322" y="263" width="10" height="1" fill="#3C9156"/><rect x="332" y="263" width="9" height="1" fill="#5FC174"/><rect x="370" y="263" width="9" height="1" fill="#5FC174"/><rect x="379" y="263" width="10" height="1" fill="#82F192"/><rect x="398" y="263" width="29" height="1" fill="#3C9156"/><rect x="427" y="263" width="9" height="1" fill="#5FC174"/><rect x="436" y="263" width="29" height="1" fill="#82F192"/><rect x="322" y="264" width="10" height="1" fill="#3C9156"/><rect x="332" y="264" width="9" height="1" fill="#5FC174"/><rect x="370" y="264" width="9" height="1" fill="#5FC174"/><rect x="379" y="264" width="10" height="1" fill="#82F192"/><rect x="398" y="264" width="29" height="1" fill="#3C9156"/><rect x="427" y="264" width="9" height="1" fill="#5FC174"/><rect x="436" y="264" width="29" height="1" fill="#82F192"/><rect x="322" y="265" width="10" height="1" fill="#3C9156"/><rect x="370" y="265" width="9" height="1" fill="#3C9156"/><rect x="379" y="265" width="10" height="1" fill="#82F192"/><rect x="389" y="265" width="9" height="1" fill="#3C9156"/><rect x="398" y="265" width="10" height="1" fill="#5FC174"/><rect x="408" y="265" width="19" height="1" fill="#3C9156"/><rect x="427" y="265" width="19" height="1" fill="#5FC174"/><rect x="446" y="265" width="19" height="1" fill="#82F192"/><rect x="322" y="266" width="10" height="1" fill="#3C9156"/><rect x="370" y="266" width="9" height="1" fill="#3C9156"/><rect x="379" y="266" width="10" height="1" fill="#82F192"/><rect x="389" y="266" width="9" height="1" fill="#3C9156"/><rect x="398" y="266" width="10" height="1" fill="#5FC174"/><rect x="408" y="266" width="19" height="1" fill="#3C9156"/><rect x="427" y="266" width="19" height="1" fill="#5FC174"/><rect x="446" y="266" width="19" height="1" fill="#82F192"/><rect x="322" y="267" width="10" height="1" fill="#3C9156"/><rect x="370" y="267" width="9" height="1" fill="#3C9156"/><rect x="379" y="267" width="10" height="1" fill="#82F192"/><rect x="389" y="267" width="9" height="1" fill="#3C9156"/><rect x="398" y="267" width="10" height="1" fill="#5FC174"/><rect x="408" y="267" width="19" height="1" fill="#3C9156"/><rect x="427" y="267" width="19" height="1" fill="#5FC174"/><rect x="446" y="267" width="19" height="1" fill="#82F192"/><rect x="322" y="268" width="10" height="1" fill="#3C9156"/><rect x="370" y="268" width="9" height="1" fill="#3C9156"/><rect x="379" y="268" width="10" height="1" fill="#82F192"/><rect x="389" y="268" width="9" height="1" fill="#3C9156"/><rect x="398" y="268" width="10" height="1" fill="#5FC174"/><rect x="408" y="268" width="19" height="1" fill="#3C9156"/><rect x="427" y="268" width="19" height="1" fill="#5FC174"/><rect x="446" y="268" width="19" height="1" fill="#82F192"/><rect x="322" y="269" width="10" height="1" fill="#3C9156"/><rect x="370" y="269" width="9" height="1" fill="#3C9156"/><rect x="379" y="269" width="10" height="1" fill="#82F192"/><rect x="389" y="269" width="9" height="1" fill="#3C9156"/><rect x="398" y="269" width="10" height="1" fill="#5FC174"/><rect x="408" y="269" width="19" height="1" fill="#3C9156"/><rect x="427" y="269" width="19" height="1" fill="#5FC174"/><rect x="446" y="269" width="19" height="1" fill="#82F192"/><rect x="322" y="270" width="10" height="1" fill="#3C9156"/><rect x="370" y="270" width="9" height="1" fill="#3C9156"/><rect x="379" y="270" width="10" height="1" fill="#82F192"/><rect x="389" y="270" width="9" height="1" fill="#3C9156"/><rect x="398" y="270" width="10" height="1" fill="#5FC174"/><rect x="408" y="270" width="19" height="1" fill="#3C9156"/><rect x="427" y="270" width="19" height="1" fill="#5FC174"/><rect x="446" y="270" width="19" height="1" fill="#82F192"/><rect x="322" y="271" width="10" height="1" fill="#3C9156"/><rect x="370" y="271" width="9" height="1" fill="#3C9156"/><rect x="379" y="271" width="10" height="1" fill="#82F192"/><rect x="389" y="271" width="9" height="1" fill="#3C9156"/><rect x="398" y="271" width="10" height="1" fill="#5FC174"/><rect x="408" y="271" width="19" height="1" fill="#3C9156"/><rect x="427" y="271" width="19" height="1" fill="#5FC174"/><rect x="446" y="271" width="19" height="1" fill="#82F192"/><rect x="322" y="272" width="10" height="1" fill="#3C9156"/><rect x="370" y="272" width="9" height="1" fill="#3C9156"/><rect x="379" y="272" width="10" height="1" fill="#82F192"/><rect x="389" y="272" width="9" height="1" fill="#3C9156"/><rect x="398" y="272" width="10" height="1" fill="#5FC174"/><rect x="408" y="272" width="19" height="1" fill="#3C9156"/><rect x="427" y="272" width="19" height="1" fill="#5FC174"/><rect x="446" y="272" width="19" height="1" fill="#82F192"/><rect x="322" y="273" width="10" height="1" fill="#3C9156"/><rect x="370" y="273" width="9" height="1" fill="#3C9156"/><rect x="379" y="273" width="10" height="1" fill="#82F192"/><rect x="389" y="273" width="9" height="1" fill="#3C9156"/><rect x="398" y="273" width="10" height="1" fill="#5FC174"/><rect x="408" y="273" width="19" height="1" fill="#3C9156"/><rect x="427" y="273" width="19" height="1" fill="#5FC174"/><rect x="446" y="273" width="19" height="1" fill="#82F192"/><rect x="322" y="274" width="10" height="1" fill="#3C9156"/><rect x="370" y="274" width="9" height="1" fill="#3C9156"/><rect x="379" y="274" width="10" height="1" fill="#82F192"/><rect x="389" y="274" width="9" height="1" fill="#3C9156"/><rect x="398" y="274" width="10" height="1" fill="#5FC174"/><rect x="408" y="274" width="19" height="1" fill="#3C9156"/><rect x="427" y="274" width="19" height="1" fill="#5FC174"/><rect x="446" y="274" width="19" height="1" fill="#82F192"/><rect x="360" y="275" width="48" height="1" fill="#3C9156"/><rect x="408" y="275" width="9" height="1" fill="#82F192"/><rect x="417" y="275" width="19" height="1" fill="#3C9156"/><rect x="436" y="275" width="10" height="1" fill="#5FC174"/><rect x="446" y="275" width="19" height="1" fill="#82F192"/><rect x="360" y="276" width="48" height="1" fill="#3C9156"/><rect x="408" y="276" width="9" height="1" fill="#82F192"/><rect x="417" y="276" width="19" height="1" fill="#3C9156"/><rect x="436" y="276" width="10" height="1" fill="#5FC174"/><rect x="446" y="276" width="19" height="1" fill="#82F192"/><rect x="360" y="277" width="48" height="1" fill="#3C9156"/><rect x="408" y="277" width="9" height="1" fill="#82F192"/><rect x="417" y="277" width="19" height="1" fill="#3C9156"/><rect x="436" y="277" width="10" height="1" fill="#5FC174"/><rect x="446" y="277" width="19" height="1" fill="#82F192"/><rect x="360" y="278" width="48" height="1" fill="#3C9156"/><rect x="408" y="278" width="9" height="1" fill="#82F192"/><rect x="417" y="278" width="19" height="1" fill="#3C9156"/><rect x="436" y="278" width="10" height="1" fill="#5FC174"/><rect x="446" y="278" width="19" height="1" fill="#82F192"/><rect x="360" y="279" width="48" height="1" fill="#3C9156"/><rect x="408" y="279" width="9" height="1" fill="#82F192"/><rect x="417" y="279" width="19" height="1" fill="#3C9156"/><rect x="436" y="279" width="10" height="1" fill="#5FC174"/><rect x="446" y="279" width="19" height="1" fill="#82F192"/><rect x="360" y="280" width="48" height="1" fill="#3C9156"/><rect x="408" y="280" width="9" height="1" fill="#82F192"/><rect x="417" y="280" width="19" height="1" fill="#3C9156"/><rect x="436" y="280" width="10" height="1" fill="#5FC174"/><rect x="446" y="280" width="19" height="1" fill="#82F192"/><rect x="360" y="281" width="48" height="1" fill="#3C9156"/><rect x="408" y="281" width="9" height="1" fill="#82F192"/><rect x="417" y="281" width="19" height="1" fill="#3C9156"/><rect x="436" y="281" width="10" height="1" fill="#5FC174"/><rect x="446" y="281" width="19" height="1" fill="#82F192"/><rect x="360" y="282" width="48" height="1" fill="#3C9156"/><rect x="408" y="282" width="9" height="1" fill="#82F192"/><rect x="417" y="282" width="19" height="1" fill="#3C9156"/><rect x="436" y="282" width="10" height="1" fill="#5FC174"/><rect x="446" y="282" width="19" height="1" fill="#82F192"/><rect x="360" y="283" width="48" height="1" fill="#3C9156"/><rect x="408" y="283" width="9" height="1" fill="#82F192"/><rect x="417" y="283" width="19" height="1" fill="#3C9156"/><rect x="436" y="283" width="10" height="1" fill="#5FC174"/><rect x="446" y="283" width="19" height="1" fill="#82F192"/><rect x="360" y="284" width="19" height="1" fill="#3C9156"/><rect x="379" y="284" width="19" height="1" fill="#82F192"/><rect x="398" y="284" width="48" height="1" fill="#3C9156"/><rect x="446" y="284" width="19" height="1" fill="#5FC174"/><rect x="360" y="285" width="19" height="1" fill="#3C9156"/><rect x="379" y="285" width="19" height="1" fill="#82F192"/><rect x="398" y="285" width="48" height="1" fill="#3C9156"/><rect x="446" y="285" width="19" height="1" fill="#5FC174"/><rect x="360" y="286" width="19" height="1" fill="#3C9156"/><rect x="379" y="286" width="19" height="1" fill="#82F192"/><rect x="398" y="286" width="48" height="1" fill="#3C9156"/><rect x="446" y="286" width="19" height="1" fill="#5FC174"/><rect x="360" y="287" width="19" height="1" fill="#3C9156"/><rect x="379" y="287" width="19" height="1" fill="#82F192"/><rect x="398" y="287" width="48" height="1" fill="#3C9156"/><rect x="446" y="287" width="19" height="1" fill="#5FC174"/><rect x="360" y="288" width="19" height="1" fill="#3C9156"/><rect x="379" y="288" width="19" height="1" fill="#82F192"/><rect x="398" y="288" width="48" height="1" fill="#3C9156"/><rect x="446" y="288" width="19" height="1" fill="#5FC174"/><rect x="360" y="289" width="19" height="1" fill="#3C9156"/><rect x="379" y="289" width="19" height="1" fill="#82F192"/><rect x="398" y="289" width="48" height="1" fill="#3C9156"/><rect x="446" y="289" width="19" height="1" fill="#5FC174"/><rect x="360" y="290" width="19" height="1" fill="#3C9156"/><rect x="379" y="290" width="19" height="1" fill="#82F192"/><rect x="398" y="290" width="48" height="1" fill="#3C9156"/><rect x="446" y="290" width="19" height="1" fill="#5FC174"/><rect x="360" y="291" width="19" height="1" fill="#3C9156"/><rect x="379" y="291" width="19" height="1" fill="#82F192"/><rect x="398" y="291" width="48" height="1" fill="#3C9156"/><rect x="446" y="291" width="19" height="1" fill="#5FC174"/><rect x="360" y="292" width="19" height="1" fill="#3C9156"/><rect x="379" y="292" width="19" height="1" fill="#82F192"/><rect x="398" y="292" width="48" height="1" fill="#3C9156"/><rect x="446" y="292" width="19" height="1" fill="#5FC174"/><rect x="360" y="293" width="19" height="1" fill="#3C9156"/><rect x="379" y="293" width="19" height="1" fill="#82F192"/><rect x="398" y="293" width="48" height="1" fill="#3C9156"/><rect x="446" y="293" width="19" height="1" fill="#5FC174"/><rect x="360" y="294" width="10" height="1" fill="#3C9156"/><rect x="370" y="294" width="9" height="1" fill="#5FC174"/><rect x="379" y="294" width="29" height="1" fill="#82F192"/><rect x="408" y="294" width="47" height="1" fill="#3C9156"/><rect x="360" y="295" width="10" height="1" fill="#3C9156"/><rect x="370" y="295" width="9" height="1" fill="#5FC174"/><rect x="379" y="295" width="29" height="1" fill="#82F192"/><rect x="408" y="295" width="47" height="1" fill="#3C9156"/><rect x="360" y="296" width="10" height="1" fill="#3C9156"/><rect x="370" y="296" width="9" height="1" fill="#5FC174"/><rect x="379" y="296" width="29" height="1" fill="#82F192"/><rect x="408" y="296" width="47" height="1" fill="#3C9156"/><rect x="360" y="297" width="10" height="1" fill="#3C9156"/><rect x="370" y="297" width="9" height="1" fill="#5FC174"/><rect x="379" y="297" width="29" height="1" fill="#82F192"/><rect x="408" y="297" width="47" height="1" fill="#3C9156"/><rect x="360" y="298" width="10" height="1" fill="#3C9156"/><rect x="370" y="298" width="9" height="1" fill="#5FC174"/><rect x="379" y="298" width="29" height="1" fill="#82F192"/><rect x="408" y="298" width="47" height="1" fill="#3C9156"/><rect x="360" y="299" width="10" height="1" fill="#3C9156"/><rect x="370" y="299" width="9" height="1" fill="#5FC174"/><rect x="379" y="299" width="29" height="1" fill="#82F192"/><rect x="408" y="299" width="47" height="1" fill="#3C9156"/><rect x="360" y="300" width="10" height="1" fill="#3C9156"/><rect x="370" y="300" width="9" height="1" fill="#5FC174"/><rect x="379" y="300" width="29" height="1" fill="#82F192"/><rect x="408" y="300" width="47" height="1" fill="#3C9156"/><rect x="360" y="301" width="10" height="1" fill="#3C9156"/><rect x="370" y="301" width="9" height="1" fill="#5FC174"/><rect x="379" y="301" width="29" height="1" fill="#82F192"/><rect x="408" y="301" width="47" height="1" fill="#3C9156"/><rect x="360" y="302" width="10" height="1" fill="#3C9156"/><rect x="370" y="302" width="9" height="1" fill="#5FC174"/><rect x="379" y="302" width="29" height="1" fill="#82F192"/><rect x="408" y="302" width="47" height="1" fill="#3C9156"/><rect x="351" y="303" width="19" height="1" fill="#3C9156"/><rect x="370" y="303" width="9" height="1" fill="#5FC174"/><rect x="379" y="303" width="38" height="1" fill="#82F192"/><rect x="417" y="303" width="29" height="1" fill="#3C9156"/><rect x="351" y="304" width="19" height="1" fill="#3C9156"/><rect x="370" y="304" width="9" height="1" fill="#5FC174"/><rect x="379" y="304" width="38" height="1" fill="#82F192"/><rect x="417" y="304" width="29" height="1" fill="#3C9156"/><rect x="351" y="305" width="19" height="1" fill="#3C9156"/><rect x="370" y="305" width="9" height="1" fill="#5FC174"/><rect x="379" y="305" width="38" height="1" fill="#82F192"/><rect x="417" y="305" width="29" height="1" fill="#3C9156"/><rect x="351" y="306" width="19" height="1" fill="#3C9156"/><rect x="370" y="306" width="9" height="1" fill="#5FC174"/><rect x="379" y="306" width="38" height="1" fill="#82F192"/><rect x="417" y="306" width="29" height="1" fill="#3C9156"/><rect x="351" y="307" width="19" height="1" fill="#3C9156"/><rect x="370" y="307" width="9" height="1" fill="#5FC174"/><rect x="379" y="307" width="38" height="1" fill="#82F192"/><rect x="417" y="307" width="29" height="1" fill="#3C9156"/><rect x="351" y="308" width="19" height="1" fill="#3C9156"/><rect x="370" y="308" width="9" height="1" fill="#5FC174"/><rect x="379" y="308" width="38" height="1" fill="#82F192"/><rect x="417" y="308" width="29" height="1" fill="#3C9156"/><rect x="351" y="309" width="19" height="1" fill="#3C9156"/><rect x="370" y="309" width="9" height="1" fill="#5FC174"/><rect x="379" y="309" width="38" height="1" fill="#82F192"/><rect x="417" y="309" width="29" height="1" fill="#3C9156"/><rect x="351" y="310" width="19" height="1" fill="#3C9156"/><rect x="370" y="310" width="9" height="1" fill="#5FC174"/><rect x="379" y="310" width="38" height="1" fill="#82F192"/><rect x="417" y="310" width="29" height="1" fill="#3C9156"/><rect x="351" y="311" width="19" height="1" fill="#3C9156"/><rect x="370" y="311" width="9" height="1" fill="#5FC174"/><rect x="379" y="311" width="38" height="1" fill="#82F192"/><rect x="417" y="311" width="29" height="1" fill="#3C9156"/><rect x="351" y="312" width="19" height="1" fill="#3C9156"/><rect x="370" y="312" width="9" height="1" fill="#5FC174"/><rect x="379" y="312" width="38" height="1" fill="#82F192"/><rect x="417" y="312" width="29" height="1" fill="#3C9156"/><rect x="351" y="313" width="19" height="1" fill="#3C9156"/><rect x="370" y="313" width="19" height="1" fill="#5FC174"/><rect x="389" y="313" width="19" height="1" fill="#82F192"/><rect x="408" y="313" width="9" height="1" fill="#3C9156"/><rect x="417" y="313" width="10" height="1" fill="#5FC174"/><rect x="427" y="313" width="9" height="1" fill="#82F192"/><rect x="351" y="314" width="19" height="1" fill="#3C9156"/><rect x="370" y="314" width="19" height="1" fill="#5FC174"/><rect x="389" y="314" width="19" height="1" fill="#82F192"/><rect x="408" y="314" width="9" height="1" fill="#3C9156"/><rect x="417" y="314" width="10" height="1" fill="#5FC174"/><rect x="427" y="314" width="9" height="1" fill="#82F192"/><rect x="351" y="315" width="19" height="1" fill="#3C9156"/><rect x="370" y="315" width="19" height="1" fill="#5FC174"/><rect x="389" y="315" width="19" height="1" fill="#82F192"/><rect x="408" y="315" width="9" height="1" fill="#3C9156"/><rect x="417" y="315" width="10" height="1" fill="#5FC174"/><rect x="427" y="315" width="9" height="1" fill="#82F192"/><rect x="351" y="316" width="19" height="1" fill="#3C9156"/><rect x="370" y="316" width="19" height="1" fill="#5FC174"/><rect x="389" y="316" width="19" height="1" fill="#82F192"/><rect x="408" y="316" width="9" height="1" fill="#3C9156"/><rect x="417" y="316" width="10" height="1" fill="#5FC174"/><rect x="427" y="316" width="9" height="1" fill="#82F192"/><rect x="351" y="317" width="19" height="1" fill="#3C9156"/><rect x="370" y="317" width="19" height="1" fill="#5FC174"/><rect x="389" y="317" width="19" height="1" fill="#82F192"/><rect x="408" y="317" width="9" height="1" fill="#3C9156"/><rect x="417" y="317" width="10" height="1" fill="#5FC174"/><rect x="427" y="317" width="9" height="1" fill="#82F192"/><rect x="351" y="318" width="19" height="1" fill="#3C9156"/><rect x="370" y="318" width="19" height="1" fill="#5FC174"/><rect x="389" y="318" width="19" height="1" fill="#82F192"/><rect x="408" y="318" width="9" height="1" fill="#3C9156"/><rect x="417" y="318" width="10" height="1" fill="#5FC174"/><rect x="427" y="318" width="9" height="1" fill="#82F192"/><rect x="351" y="319" width="19" height="1" fill="#3C9156"/><rect x="370" y="319" width="19" height="1" fill="#5FC174"/><rect x="389" y="319" width="19" height="1" fill="#82F192"/><rect x="408" y="319" width="9" height="1" fill="#3C9156"/><rect x="417" y="319" width="10" height="1" fill="#5FC174"/><rect x="427" y="319" width="9" height="1" fill="#82F192"/><rect x="351" y="320" width="19" height="1" fill="#3C9156"/><rect x="370" y="320" width="19" height="1" fill="#5FC174"/><rect x="389" y="320" width="19" height="1" fill="#82F192"/><rect x="408" y="320" width="9" height="1" fill="#3C9156"/><rect x="417" y="320" width="10" height="1" fill="#5FC174"/><rect x="427" y="320" width="9" height="1" fill="#82F192"/><rect x="351" y="321" width="19" height="1" fill="#3C9156"/><rect x="370" y="321" width="19" height="1" fill="#5FC174"/><rect x="389" y="321" width="19" height="1" fill="#82F192"/><rect x="408" y="321" width="9" height="1" fill="#3C9156"/><rect x="417" y="321" width="10" height="1" fill="#5FC174"/><rect x="427" y="321" width="9" height="1" fill="#82F192"/><rect x="351" y="322" width="28" height="1" fill="#3C9156"/><rect x="379" y="322" width="29" height="1" fill="#5FC174"/><rect x="408" y="322" width="19" height="1" fill="#3C9156"/><rect x="427" y="322" width="19" height="1" fill="#5FC174"/><rect x="351" y="323" width="28" height="1" fill="#3C9156"/><rect x="379" y="323" width="29" height="1" fill="#5FC174"/><rect x="408" y="323" width="19" height="1" fill="#3C9156"/><rect x="427" y="323" width="19" height="1" fill="#5FC174"/><rect x="351" y="324" width="28" height="1" fill="#3C9156"/><rect x="379" y="324" width="29" height="1" fill="#5FC174"/><rect x="408" y="324" width="19" height="1" fill="#3C9156"/><rect x="427" y="324" width="19" height="1" fill="#5FC174"/><rect x="351" y="325" width="28" height="1" fill="#3C9156"/><rect x="379" y="325" width="29" height="1" fill="#5FC174"/><rect x="408" y="325" width="19" height="1" fill="#3C9156"/><rect x="427" y="325" width="19" height="1" fill="#5FC174"/><rect x="351" y="326" width="28" height="1" fill="#3C9156"/><rect x="379" y="326" width="29" height="1" fill="#5FC174"/><rect x="408" y="326" width="19" height="1" fill="#3C9156"/><rect x="427" y="326" width="19" height="1" fill="#5FC174"/><rect x="351" y="327" width="28" height="1" fill="#3C9156"/><rect x="379" y="327" width="29" height="1" fill="#5FC174"/><rect x="408" y="327" width="19" height="1" fill="#3C9156"/><rect x="427" y="327" width="19" height="1" fill="#5FC174"/><rect x="351" y="328" width="28" height="1" fill="#3C9156"/><rect x="379" y="328" width="29" height="1" fill="#5FC174"/><rect x="408" y="328" width="19" height="1" fill="#3C9156"/><rect x="427" y="328" width="19" height="1" fill="#5FC174"/><rect x="351" y="329" width="28" height="1" fill="#3C9156"/><rect x="379" y="329" width="29" height="1" fill="#5FC174"/><rect x="408" y="329" width="19" height="1" fill="#3C9156"/><rect x="427" y="329" width="19" height="1" fill="#5FC174"/><rect x="351" y="330" width="28" height="1" fill="#3C9156"/><rect x="379" y="330" width="29" height="1" fill="#5FC174"/><rect x="408" y="330" width="19" height="1" fill="#3C9156"/><rect x="427" y="330" width="19" height="1" fill="#5FC174"/><rect x="351" y="331" width="28" height="1" fill="#3C9156"/><rect x="379" y="331" width="29" height="1" fill="#5FC174"/><rect x="408" y="331" width="19" height="1" fill="#3C9156"/><rect x="427" y="331" width="19" height="1" fill="#5FC174"/><rect x="360" y="332" width="38" height="1" fill="#3C9156"/><rect x="408" y="332" width="38" height="1" fill="#3C9156"/><rect x="360" y="333" width="38" height="1" fill="#3C9156"/><rect x="408" y="333" width="38" height="1" fill="#3C9156"/><rect x="360" y="334" width="38" height="1" fill="#3C9156"/><rect x="408" y="334" width="38" height="1" fill="#3C9156"/><rect x="360" y="335" width="38" height="1" fill="#3C9156"/><rect x="408" y="335" width="38" height="1" fill="#3C9156"/><rect x="360" y="336" width="38" height="1" fill="#3C9156"/><rect x="408" y="336" width="38" height="1" fill="#3C9156"/><rect x="360" y="337" width="38" height="1" fill="#3C9156"/><rect x="408" y="337" width="38" height="1" fill="#3C9156"/><rect x="360" y="338" width="38" height="1" fill="#3C9156"/><rect x="408" y="338" width="38" height="1" fill="#3C9156"/><rect x="360" y="339" width="38" height="1" fill="#3C9156"/><rect x="408" y="339" width="38" height="1" fill="#3C9156"/><rect x="360" y="340" width="38" height="1" fill="#3C9156"/><rect x="408" y="340" width="38" height="1" fill="#3C9156"/><rect x="417" y="341" width="19" height="1" fill="#3C9156"/><rect x="417" y="342" width="19" height="1" fill="#3C9156"/><rect x="417" y="343" width="19" height="1" fill="#3C9156"/><rect x="417" y="344" width="19" height="1" fill="#3C9156"/><rect x="417" y="345" width="19" height="1" fill="#3C9156"/><rect x="417" y="346" width="19" height="1" fill="#3C9156"/><rect x="417" y="347" width="19" height="1" fill="#3C9156"/><rect x="417" y="348" width="19" height="1" fill="#3C9156"/><rect x="417" y="349" width="19" height="1" fill="#3C9156"/><rect x="417" y="350" width="19" height="1" fill="#3C9156"/><rect x="398" y="351" width="10" height="1" fill="#5FC174"/><rect x="408" y="351" width="9" height="1" fill="#82F192"/><rect x="398" y="352" width="10" height="1" fill="#5FC174"/><rect x="408" y="352" width="9" height="1" fill="#82F192"/><rect x="398" y="353" width="10" height="1" fill="#5FC174"/><rect x="408" y="353" width="9" height="1" fill="#82F192"/><rect x="398" y="354" width="10" height="1" fill="#5FC174"/><rect x="408" y="354" width="9" height="1" fill="#82F192"/><rect x="398" y="355" width="10" height="1" fill="#5FC174"/><rect x="408" y="355" width="9" height="1" fill="#82F192"/><rect x="398" y="356" width="10" height="1" fill="#5FC174"/><rect x="408" y="356" width="9" height="1" fill="#82F192"/><rect x="398" y="357" width="10" height="1" fill="#5FC174"/><rect x="408" y="357" width="9" height="1" fill="#82F192"/><rect x="398" y="358" width="10" height="1" fill="#5FC174"/><rect x="408" y="358" width="9" height="1" fill="#82F192"/><rect x="398" y="359" width="10" height="1" fill="#5FC174"/><rect x="408" y="359" width="9" height="1" fill="#82F192"/><rect x="398" y="360" width="10" height="1" fill="#3C9156"/><rect x="408" y="360" width="9" height="1" fill="#5FC174"/><rect x="398" y="361" width="10" height="1" fill="#3C9156"/><rect x="408" y="361" width="9" height="1" fill="#5FC174"/><rect x="398" y="362" width="10" height="1" fill="#3C9156"/><rect x="408" y="362" width="9" height="1" fill="#5FC174"/><rect x="398" y="363" width="10" height="1" fill="#3C9156"/><rect x="408" y="363" width="9" height="1" fill="#5FC174"/><rect x="398" y="364" width="10" height="1" fill="#3C9156"/><rect x="408" y="364" width="9" height="1" fill="#5FC174"/><rect x="398" y="365" width="10" height="1" fill="#3C9156"/><rect x="408" y="365" width="9" height="1" fill="#5FC174"/><rect x="398" y="366" width="10" height="1" fill="#3C9156"/><rect x="408" y="366" width="9" height="1" fill="#5FC174"/><rect x="398" y="367" width="10" height="1" fill="#3C9156"/><rect x="408" y="367" width="9" height="1" fill="#5FC174"/><rect x="398" y="368" width="10" height="1" fill="#3C9156"/><rect x="408" y="368" width="9" height="1" fill="#5FC174"/><rect x="398" y="369" width="10" height="1" fill="#3C9156"/><rect x="408" y="369" width="9" height="1" fill="#5FC174"/></svg>