<svg xmlns="http://www.w3.org/2000/svg" viewBox="0 0 512 512" width="512" height="512" shape-rendering="crispEdges"><rect x="294" y="303" width="19" height="1" fill="#FF8A87"/><rect x="294" y="304" width="19" height="1" fill="#FF8A87"/><rect x="294" y="305" width="19" height="1" fill="#FF8A87"/><rect x="294" y="306" width="19" height="1" fill="#FF8A87"/><rect x="294" y="307" width="19" height="1" fill="#FF8A87"/><rect x="294" y="308" width="19" height="1" fill="#FF8A87"/><rect x="294" y="309" width="19" height="1" fill="#FF8A87"/><rect x="294" y="310" width="19" height="1" fill="#FF8A87"/><rect x="294" y="311" width="19" height="1" fill="#FF8A87"/><rect x="294" y="312" width="19" height="1" fill="#FF8A87"/><rect x="284" y="313" width="38" height="1" fill="#FF8A87"/><rect x="284" y="314" width="38" height="1" fill="#FF8A87"/><rect x="284" y="315" width="38" height="1" fill="#FF8A87"/><rect x="284" y="316" width="38" height="1" fill="#FF8A87"/><rect x="284" y="317" width="38" height="1" fill="#FF8A87"/><rect x="284" y="318" width="38" height="1" fill="#FF8A87"/><rect x="284" y="319" width="38" height="1" fill="#FF8A87"/><rect x="284" y="320" width="38" height="1" fill="#FF8A87"/><rect x="284" y="321" width="38" height="1" fill="#FF8A87"/><rect x="294" y="322" width="19" height="1" fill="#FF8A87"/><rect x="294" y="323" width="19" height="1" fill="#FF8A87"/><rect x="294" y="324" width="19" height="1" fill="#FF8A87"/><rect x="294" y="325" width="19" height="1" fill="#FF8A87"/><rect x="294" y="326" width="19" height="1" fill="#FF8A87"/><rect x="294" y="327" width="19" height="1" fill="#FF8A87"/><rect x="294" y="328" width="19" height="1" fill="#FF8A87"/><rect x="294" y="329" width="19" height="1" fill="#FF8A87"/><rect x="294" y="330" width="19" height="1" fill="#FF8A87"/><rect x="294" y="331" width="19" height="1" fill="#FF8A87"/><rect x="294" y="332" width="19" height="1" fill="#FF8A87"/><rect x="294" y="333" width="19" height="1" fill="#FF8A87"/><rect x="294" y="334" width="19" height="1" fill="#FF8A87"/><rect x="294" y="335" width="19" height="1" fill="#FF8A87"/><rect x="294" y="336" width="19" height="1" fill="#FF8A87"/><rect x="294" y="337" width="19" height="1" fill="#FF8A87"/><rect x="294" y="338" width="19" height="1" fill="#FF8A87"/><rect x="294" y="339" width="19" height="1" fill="#FF8A87"/><rect x="294" y="340" width="19" height="1" fill="#FF8A87"/></svg>