<svg xmlns="http://www.w3.org/2000/svg" viewBox="0 0 512 512" width="512" height="512" shape-rendering="crispEdges"><rect x="284" y="275" width="29" height="1" fill="#FF0000" opacity="0.302"/><rect x="284" y="276" width="29" height="1" fill="#FF0000" opacity="0.302"/><rect x="284" y="277" width="29" height="1" fill="#FF0000" opacity="0.302"/><rect x="284" y="278" width="29" height="1" fill="#FF0000" opacity="0.302"/><rect x="284" y="279" width="29" height="1" fill="#FF0000" opacity="0.302"/><rect x="284" y="280" width="29" height="1" fill="#FF0000" opacity="0.302"/><rect x="284" y="281" width="29" height="1" fill="#FF0000" opacity="0.302"/><rect x="284" y="282" width="29" height="1" fill="#FF0000" opacity="0.302"/><rect x="284" y="283" width="29" height="1" fill="#FF0000" opacity="0.302"/><rect x="284" y="284" width="10" height="1" fill="#FF0000" opacity="0.200"/><rect x="284" y="285" width="10" height="1" fill="#FF0000" opacity="0.200"/><rect x="284" y="286" width="10" height="1" fill="#FF0000" opacity="0.200"/><rect x="284" y="287" width="10" height="1" fill="#FF0000" opacity="0.200"/><rect x="284" y="288" width="10" height="1" fill="#FF0000" opacity="0.200"/><rect x="284" y="289" width="10" height="1" fill="#FF0000" opacity="0.200"/><rect x="284" y="290" width="10" height="1" fill="#FF0000" opacity="0.200"/><rect x="284" y="291" width="10" height="1" fill="#FF0000" opacity="0.200"/><rect x="284" y="292" width="10" height="1" fill="#FF0000" opacity="0.200"/><rect x="284" y="293" width="10" height="1" fill="#FF0000" opacity="0.200"/><rect x="284" y="294" width="38" height="1" fill="#FF0000" opacity="0.129"/><rect x="284" y="295" width="38" height="1" fill="#FF0000" opacity="0.129"/><rect x="284" y="296" width="38" height="1" fill="#FF0000" opacity="0.129"/><rect x="284" y="297" width="38" height="1" fill="#FF0000" opacity="0.129"/><rect x="284" y="298" width="38" height="1" fill="#FF0000" opacity="0.129"/><rect x="284" y="299" width="38" height="1" fill="#FF0000" opacity="0.129"/><rect x="284" y="300" width="38" height="1" fill="#FF0000" opacity="0.129"/><rect x="284" y="301" width="38" height="1" fill="#FF0000" opacity="0.129"/><rect x="284" y="302" width="38" height="1" fill="#FF0000" opacity="0.129"/><rect x="294" y="303" width="38" height="1" fill="#FF0000" opacity="0.129"/><rect x="294" y="304" width="38" height="1" fill="#FF0000" opacity="0.129"/><rect x="294" y="305" width="38" height="1" fill="#FF0000" opacity="0.129"/><rect x="294" y="306" width="38" height="1" fill="#FF0000" opacity="0.129"/><rect x="294" y="307" width="38" height="1" fill="#FF0000" opacity="0.129"/><rect x="294" y="308" width="38" height="1" fill="#FF0000" opacity="0.129"/><rect x="294" y="309" width="38" height="1" fill="#FF0000" opacity="0.129"/><rect x="294" y="310" width="38" height="1" fill="#FF0000" opacity="0.129"/><rect x="294" y="311" width="38" height="1" fill="#FF0000" opacity="0.129"/><rect x="294" y="312" width="38" height="1" fill="#FF0000" opacity="0.129"/><rect x="294" y="313" width="38" height="1" fill="#FF0000" opacity="0.102"/><rect x="294" y="314" width="38" height="1" fill="#FF0000" opacity="0.102"/><rect x="294" y="315" width="38" height="1" fill="#FF0000" opacity="0.102"/><rect x="294" y="316" width="38" height="1" fill="#FF0000" opacity="0.102"/><rect x="294" y="317" width="38" height="1" fill="#FF0000" opacity="0.102"/><rect x="294" y="318" width="38" height="1" fill="#FF0000" opacity="0.102"/><rect x="294" y="319" width="38" height="1" fill="#FF0000" opacity="0.102"/><rect x="294" y="320" width="38" height="1" fill="#FF0000" opacity="0.102"/><rect x="294" y="321" width="38" height="1" fill="#FF0000" opacity="0.102"/><rect x="294" y="322" width="38" height="1" fill="#FF0000" opacity="0.102"/><rect x="294" y="323" width="38" height="1" fill="#FF0000" opacity="0.102"/><rect x="294" y="324" width="38" height="1" fill="#FF0000" opacity="0.102"/><rect x="294" y="325" width="38" height="1" fill="#FF0000" opacity="0.102"/><rect x="294" y="326" width="38" height="1" fill="#FF0000" opacity="0.102"/><rect x="294" y="327" width="38" height="1" fill="#FF0000" opacity="0.102"/><rect x="294" y="328" width="38" height="1" fill="#FF0000" opacity="0.102"/><rect x="294" y="329" width="38" height="1" fill="#FF0000" opacity="0.102"/><rect x="294" y="330" width="38" height="1" fill="#FF0000" opacity="0.102"/><rect x="294" y="331" width="38" height="1" fill="#FF0000" opacity="0.102"/><rect x="294" y="332" width="28" height="1" fill="#FF0000" opacity="0.200"/><rect x="294" y="333" width="28" height="1" fill="#FF0000" opacity="0.200"/><rect x="294" y="334" width="28" height="1" fill="#FF0000" opacity="0.200"/><rect x="294" y="335" width="28" height="1" fill="#FF0000" opacity="0.200"/><rect x="294" y="336" width="28" height="1" fill="#FF0000" opacity="0.200"/><rect x="294" y="337" width="28" height="1" fill="#FF0000" opacity="0.200"/><rect x="294" y="338" width="28" height="1" fill="#FF0000" opacity="0.200"/><rect x="294" y="339" width="28" height="1" fill="#FF0000" opacity="0.200"/><rect x="294" y="340" width="28" height="1" fill="#FF0000" opacity="0.200"/></svg>