<svg xmlns="http://www.w3.org/2000/svg" viewBox="0 0 512 512" width="512" height="512" shape-rendering="crispEdges"><rect x="294" y="303" width="9" height="1" fill="#5B0101"/><rect x="303" y="303" width="10" height="1" fill="#7F0000"/><rect x="313" y="303" width="9" height="1" fill="#5B0101"/><rect x="294" y="304" width="9" height="1" fill="#5B0101"/><rect x="303" y="304" width="10" height="1" fill="#7F0000"/><rect x="313" y="304" width="9" height="1" fill="#5B0101"/><rect x="294" y="305" width="9" height="1" fill="#5B0101"/><rect x="303" y="305" width="10" height="1" fill="#7F0000"/><rect x="313" y="305" width="9" height="1" fill="#5B0101"/><rect x="294" y="306" width="9" height="1" fill="#5B0101"/><rect x="303" y="306" width="10" height="1" fill="#7F0000"/><rect x="313" y="306" width="9" height="1" fill="#5B0101"/><rect x="294" y="307" width="9" height="1" fill="#5B0101"/><rect x="303" y="307" width="10" height="1" fill="#7F0000"/><rect x="313" y="307" width="9" height="1" fill="#5B0101"/><rect x="294" y="308" width="9" height="1" fill="#5B0101"/><rect x="303" y="308" width="10" height="1" fill="#7F0000"/><rect x="313" y="308" width="9" height="1" fill="#5B0101"/><rect x="294" y="309" width="9" height="1" fill="#5B0101"/><rect x="303" y="309" width="10" height="1" fill="#7F0000"/><rect x="313" y="309" width="9" height="1" fill="#5B0101"/><rect x="294" y="310" width="9" height="1" fill="#5B0101"/><rect x="303" y="310" width="10" height="1" fill="#7F0000"/><rect x="313" y="310" width="9" height="1" fill="#5B0101"/><rect x="294" y="311" width="9" height="1" fill="#5B0101"/><rect x="303" y="311" width="10" height="1" fill="#7F0000"/><rect x="313" y="311" width="9" height="1" fill="#5B0101"/><rect x="294" y="312" width="9" height="1" fill="#5B0101"/><rect x="303" y="312" width="10" height="1" fill="#7F0000"/><rect x="313" y="312" width="9" height="1" fill="#5B0101"/><rect x="294" y="313" width="9" height="1" fill="#FF0000"/><rect x="313" y="313" width="9" height="1" fill="#FF0000"/><rect x="294" y="314" width="9" height="1" fill="#FF0000"/><rect x="313" y="314" width="9" height="1" fill="#FF0000"/><rect x="294" y="315" width="9" height="1" fill="#FF0000"/><rect x="313" y="315" width="9" height="1" fill="#FF0000"/><rect x="294" y="316" width="9" height="1" fill="#FF0000"/><rect x="313" y="316" width="9" height="1" fill="#FF0000"/><rect x="294" y="317" width="9" height="1" fill="#FF0000"/><rect x="313" y="317" width="9" height="1" fill="#FF0000"/><rect x="294" y="318" width="9" height="1" fill="#FF0000"/><rect x="313" y="318" width="9" height="1" fill="#FF0000"/><rect x="294" y="319" width="9" height="1" fill="#FF0000"/><rect x="313" y="319" width="9" height="1" fill="#FF0000"/><rect x="294" y="320" width="9" height="1" fill="#FF0000"/><rect x="313" y="320" width="9" height="1" fill="#FF0000"/><rect x="294" y="321" width="9" height="1" fill="#FF0000"/><rect x="313" y="321" width="9" height="1" fill="#FF0000"/><rect x="313" y="322" width="9" height="1" fill="#FF0000"/><rect x="313" y="323" width="9" height="1" fill="#FF0000"/><rect x="313" y="324" width="9" height="1" fill="#FF0000"/><rect x="313" y="325" width="9" height="1" fill="#FF0000"/><rect x="313" y="326" width="9" height="1" fill="#FF0000"/><rect x="313" y="327" width="9" height="1" fill="#FF0000"/><rect x="313" y="328" width="9" height="1" fill="#FF0000"/><rect x="313" y="329" width="9" height="1" fill="#FF0000"/><rect x="313" y="330" width="9" height="1" fill="#FF0000"/><rect x="313" y="331" width="9" height="1" fill="#FF0000"/></svg>